HIERARCHY
ROOT joint_Root
{
  OFFSET 0 0 0
  CHANNELS 6 Xposition Yposition Zposition Zrotation Xrotation Yrotation
  JOINT Hips
  {
    OFFSET 0.847027 93.984 -452.225
    CHANNELS 6 Xposition Yposition Zposition Zrotation Xrotation Yrotation
    JOINT Spine
    {
      OFFSET 15.7357 0 0
      CHANNELS 6 Xposition Yposition Zposition Zrotation Xrotation Yrotation
      JOINT Chest
      {
        OFFSET 8.98455 -0.406207 0
        CHANNELS 6 Xposition Yposition Zposition Zrotation Xrotation Yrotation
        JOINT Neck
        {
          OFFSET 16.3773 0 0
          CHANNELS 6 Xposition Yposition Zposition Zrotation Xrotation Yrotation
          JOINT Head
          {
            OFFSET 6.45672 0 0
            CHANNELS 6 Xposition Yposition Zposition Zrotation Xrotation Yrotation
            End Site
            {
              OFFSET 0 0 0
            }
          }
        }
        JOINT Shoulder_L
        {
          OFFSET 12.9942 -0.242716 4.98039
          CHANNELS 6 Xposition Yposition Zposition Zrotation Xrotation Yrotation
          JOINT UpperArm_L
          {
            OFFSET 5.34809 0 0
            CHANNELS 6 Xposition Yposition Zposition Zrotation Xrotation Yrotation
            JOINT LowerArm_L
            {
              OFFSET 24.3286 1.87007e-05 0
              CHANNELS 6 Xposition Yposition Zposition Zrotation Xrotation Yrotation
              JOINT Hand_L
              {
                OFFSET 22.2916 0 0
                CHANNELS 6 Xposition Yposition Zposition Zrotation Xrotation Yrotation
                End Site
                {
                  OFFSET 0 0 0
                }
              }
            }
          }
        }
        JOINT Shoulder_R
        {
          OFFSET 12.9945 -0.242716 -4.98039
          CHANNELS 6 Xposition Yposition Zposition Zrotation Xrotation Yrotation
          JOINT UpperArm_R
          {
            OFFSET -5.34813 0 0
            CHANNELS 6 Xposition Yposition Zposition Zrotation Xrotation Yrotation
            JOINT LowerArm_R
            {
              OFFSET -24.3289 0.000322201 0
              CHANNELS 6 Xposition Yposition Zposition Zrotation Xrotation Yrotation
              JOINT Hand_R
              {
                OFFSET -22.2915 -0.000108084 0
                CHANNELS 6 Xposition Yposition Zposition Zrotation Xrotation Yrotation
                End Site
                {
                  OFFSET 0 0 0
                }
              }
            }
          }
        }
      }
    }
    JOINT UpperLeg_L
    {
      OFFSET -2.19248 -6.46944 0
      CHANNELS 6 Xposition Yposition Zposition Zrotation Xrotation Yrotation
      JOINT LowerLeg_L
      {
        OFFSET 39.0811 0 -1.23785e-05
        CHANNELS 6 Xposition Yposition Zposition Zrotation Xrotation Yrotation
        JOINT Foot_L
        {
          OFFSET 40.9854 0 -1.26872e-05
          CHANNELS 6 Xposition Yposition Zposition Zrotation Xrotation Yrotation
          JOINT Toes_L
          {
            OFFSET 11.7543 0 0
            CHANNELS 6 Xposition Yposition Zposition Zrotation Xrotation Yrotation
            End Site
            {
              OFFSET 0 0 0
            }
          }
        }
      }
    }
    JOINT UpperLeg_R
    {
      OFFSET -2.19251 6.46944 0
      CHANNELS 6 Xposition Yposition Zposition Zrotation Xrotation Yrotation
      JOINT LowerLeg_R
      {
        OFFSET -39.0811 -0.00228153 -0.0401928
        CHANNELS 6 Xposition Yposition Zposition Zrotation Xrotation Yrotation
        JOINT Foot_R
        {
          OFFSET -40.9854 0 0
          CHANNELS 6 Xposition Yposition Zposition Zrotation Xrotation Yrotation
          JOINT Toes_R
          {
            OFFSET -11.7543 0 0
            CHANNELS 6 Xposition Yposition Zposition Zrotation Xrotation Yrotation
            End Site
            {
              OFFSET 0 0 0
            }
          }
        }
      }
    }
  }
}
MOTION
Frames:	8
Frame Time:	0.0333333
0 0 0 0 0 -0 -139.859 84.3242 -353.289 89.8458 12.8438 -15.436 15.7357 5.1072e-06 -5.51765e-07 78.776 85.0159 -78.2513 8.98455 -0.406207 -4.3199e-07 2.02192 -1.96525 1.08333 16.3773 -1.3905e-06 -6.99897e-07 -6.45541 -7.17779 0.911643 6.45672 -1.25837e-06 -1.02172e-07 -15.9458 -8.47833 3.27196 12.9942 -0.242716 4.98039 -91.03 5.188 -93.7563 5.34809 -7.22636e-06 -6.2814e-07 -62.4889 -14.4177 -37.4693 24.3286 1.87007e-05 4.90208e-06 -5.4538 -11.354 -25.881 22.2916 -9.88446e-07 4.63217e-06 16.5417 5.49523 -6.34071 12.9945 -0.242716 -4.98039 88.0378 14.2552 -97.0781 -5.34813 -1.25947e-06 -3.79883e-06 -57.0582 -12.6298 23.3569 -24.3289 0.000322201 -8.65921e-06 2.09188 13.948 -8.62281 -22.2915 -0.000108084 -4.47941e-06 5.50373 5.08887 5.35398 -2.19248 -6.46944 -1.22533e-07 -176.105 4.07431 -21.2665 39.0811 -6.73843e-06 -1.23785e-05 0.0311654 0.0135417 46.7488 40.9854 -6.48686e-06 -1.26872e-05 2.83377 2.94315 -87.0425 11.7543 -2.30145e-07 3.05095e-06 -0.189597 -0.605238 -21.3523 -2.19251 6.46944 -1.45247e-06 175.324 9.13495 133.245 -39.0811 -0.00228153 -0.0401928 1.36045 0.748131 119.435 -40.9854 7.72618e-06 5.99936e-06 -3.36836 -0.732523 -23.5191 -11.7543 -5.6619e-06 -5.58687e-06 0.389459 -0.468597 -21.0549 
0 0 0 0 0 -0 -140.004 84.9819 -346.222 89.0848 15.1835 -18.268 15.7357 5.1072e-06 -5.51765e-07 68.5414 85.0953 -67.2405 8.98455 -0.406207 -4.3199e-07 1.40944 -3.65893 2.64515 16.3773 -1.3905e-06 -6.99897e-07 -8.20133 -6.77128 0.929516 6.45672 -1.25837e-06 -1.02172e-07 -18.9588 -6.9915 4.27396 12.9942 -0.242716 4.98039 -90.5341 2.75874 -94.0353 5.34809 -7.22636e-06 -6.2814e-07 -63.6174 -8.90145 -49.288 24.3286 1.87007e-05 4.90208e-06 -6.97197 -9.02589 -37.9644 22.2916 -9.88446e-07 4.63217e-06 21.1814 5.52796 -7.65634 12.9945 -0.242716 -4.98039 88.1387 12.5547 -96.4965 -5.34813 -1.25947e-06 -3.79883e-06 -53.0587 -16.1483 32.2012 -24.3289 0.000322201 -8.65921e-06 1.99432 14.7028 -7.81624 -22.2915 -0.000108084 -4.47941e-06 7.67452 4.98263 7.67809 -2.19248 -6.46944 -1.22533e-07 -173.496 5.48082 -16.3429 39.0811 -6.73843e-06 -1.23785e-05 0.00892708 0.0398231 38.8748 40.9854 -6.48686e-06 -1.26872e-05 2.28072 3.90306 -83.1126 11.7543 -2.30145e-07 3.05095e-06 -0.117555 -0.778493 -24.5779 -2.19251 6.46944 -1.45247e-06 177.205 8.59769 119.824 -39.0811 -0.00228153 -0.0401928 1.27334 0.773529 122.06 -40.9854 7.72618e-06 5.99936e-06 3.18757 -5.14882 -28.6704 -11.7543 -5.6619e-06 -5.58687e-06 0.394622 -0.475325 -21.1172 
0 0 0 0 0 -0 -140.244 87.3386 -338.375 87.8086 16.5875 -21.6577 15.7357 5.1072e-06 -5.51765e-07 55.4125 85.3821 -53.1392 8.98455 -0.406207 -4.3199e-07 -0.0486337 -5.39647 4.54427 16.3773 -1.3905e-06 -6.99897e-07 -9.95916 -6.13998 0.976547 6.45672 -1.25837e-06 -1.02172e-07 -21.2467 -5.09788 4.76717 12.9942 -0.242716 4.98039 -89.877 -0.599879 -93.447 5.34809 -7.22636e-06 -6.2814e-07 -61.1323 -4.26438 -55.4076 24.3286 1.87007e-05 4.90208e-06 -5.2192 -4.41922 -49.8586 22.2916 -9.88446e-07 4.63217e-06 28.2738 5.57673 -9.84895 12.9945 -0.242716 -4.98039 88.3474 10.2848 -95.8195 -5.34813 -1.25947e-06 -3.79883e-06 -50.8729 -17.5171 37.0751 -24.3289 0.000322201 -8.65921e-06 2.22298 14.4655 -8.83725 -22.2915 -0.000108084 -4.47941e-06 8.83905 4.9331 8.71055 -2.19248 -6.46944 -1.22533e-07 -170.444 2.44547 -12.8196 39.0811 -6.73843e-06 -1.23785e-05 0.00414295 0.0436408 30.007 40.9854 -6.48686e-06 -1.26872e-05 1.65226 7.68569 -68.4139 11.7543 -2.30144e-07 3.05095e-06 0.505053 -1.16793 -35.7827 -2.19251 6.46944 -1.45247e-06 179.181 6.04156 111.276 -39.0811 -0.00228153 -0.0401928 1.09787 0.49909 115.497 -40.9854 7.72618e-06 5.99936e-06 5.27374 -8.38854 -37.3611 -11.7543 -5.6619e-06 -5.58687e-06 0.300497 -0.354832 -19.9934 
0 0 0 0 0 -0 -140.275 90.3815 -330.149 87.3157 17.1507 -24.397 15.7357 5.1072e-06 -5.51765e-07 41.4112 85.4151 -38.3671 8.98455 -0.406207 -4.3199e-07 -1.5065 -7.12176 5.99899 16.3773 -1.3905e-06 -6.99897e-07 -10.3098 -5.20584 1.06804 6.45672 -1.25837e-06 -1.02172e-07 -23.1401 -3.87144 4.82153 12.9942 -0.242716 4.98039 -89.5678 -1.93065 -92.3798 5.34809 -7.22636e-06 -6.2814e-07 -59.1108 -0.45917 -56.9502 24.3286 1.87007e-05 4.90208e-06 -8.48311 -5.38642 -57.8061 22.2916 -9.88446e-07 4.63217e-06 31.3561 5.63134 -13.4432 12.9945 -0.242716 -4.98039 88.6648 7.83078 -95.2917 -5.34813 -1.25947e-06 -3.79883e-06 -48.776 -20.7435 37.8175 -24.3289 0.000322201 -8.65921e-06 2.02517 12.6478 -9.17883 -22.2915 -0.000108084 -4.47941e-06 8.84271 4.92455 8.88586 -2.19248 -6.46944 -1.22533e-07 -168.251 -5.06041 -9.99054 39.0811 -6.73843e-06 -1.23785e-05 0.0321401 -0.0472942 20.5549 40.9854 -6.48686e-06 -1.26872e-05 -4.02512 16.1038 -42.3886 11.7543 -2.30144e-07 3.05095e-06 0.61368 -2.17338 -51.0206 -2.19251 6.46944 -1.45247e-06 179.224 3.41792 108.002 -39.0811 -0.00228153 -0.0401928 0.94567 0.185768 102.363 -40.9854 7.72618e-06 5.99936e-06 4.5293 -7.6613 -43.7688 -11.7543 -5.6619e-06 -5.58687e-06 0.365214 -0.437182 -20.7633 
0 0 0 0 0 -0 -139.757 92.7544 -321.47 87.8378 15.3128 -25.3776 15.7357 5.1072e-06 -5.51764e-07 36.1551 85.3447 -33.051 8.98455 -0.406207 -4.3199e-07 -2.06099 -7.78153 6.0748 16.3773 -1.3905e-06 -6.99897e-07 -9.90151 -4.9349 1.66079 6.45672 -1.25837e-06 -1.02172e-07 -23.0687 -2.47917 5.31902 12.9942 -0.242716 4.98039 -89.7856 -0.946452 -92.237 5.34809 -7.22636e-06 -6.2814e-07 -61.0784 2.76392 -53.9206 24.3286 1.87007e-05 4.90208e-06 -8.9589 -5.49095 -58.741 22.2916 -9.88446e-07 4.63217e-06 28.5719 5.62917 -13.2536 12.9945 -0.242716 -4.98039 88.9108 6.02934 -94.7394 -5.34813 -1.25947e-06 -3.79883e-06 -46.855 -24.7787 34.5242 -24.3289 0.000322201 -8.65921e-06 1.93274 11.0662 -9.97871 -22.2915 -0.000108084 -4.47941e-06 7.00277 4.93127 8.74169 -2.19248 -6.46944 -1.22533e-07 -167.508 -7.24043 -5.66794 39.0811 -6.73843e-06 -1.23785e-05 0.0712212 -0.215455 16.4778 40.9854 -6.48686e-06 -1.26872e-05 -12.2997 14.6333 -27.1131 11.7543 -2.30144e-07 3.05095e-06 0.397289 -0.806779 -30.1193 -2.19251 6.46944 -1.45247e-06 178.258 2.5834 109.868 -39.0811 -0.00228153 -0.0401928 0.715383 -0.0715757 85.8148 -40.9854 7.72618e-06 5.99936e-06 3.86294 -3.09458 -49.0641 -11.7543 -5.6619e-06 -5.58687e-06 0.355832 -0.425084 -20.6507 
0 0 0 0 0 -0 -139.136 93.9015 -312.714 89.472 13.0444 -24.8741 15.7357 5.1072e-06 -5.51765e-07 36.2473 85.0552 -33.6483 8.98455 -0.406207 -4.3199e-07 -1.73238 -8.18913 5.0798 16.3773 -1.3905e-06 -6.99897e-07 -9.63249 -5.11645 2.4914 6.45672 -1.25837e-06 -1.02172e-07 -21.7192 -1.54098 5.86881 12.9942 -0.242716 4.98039 -90.116 0.545337 -92.9807 5.34809 -7.22636e-06 -6.2814e-07 -63.3022 5.95355 -46.7173 24.3286 1.87007e-05 4.90208e-06 -6.61479 -4.90522 -53.5872 22.2916 -9.88446e-07 4.63217e-06 26.9192 5.61272 -12.122 12.9945 -0.242716 -4.98039 88.7828 6.30064 -94.0436 -5.34813 -1.25947e-06 -3.79883e-06 -45.8598 -26.2608 28.1022 -24.3289 0.000322201 -8.65921e-06 1.77182 7.60472 -13.1791 -22.2915 -0.000108084 -4.47941e-06 5.72601 5.02646 6.7498 -2.19248 -6.46944 -1.22533e-07 -169.098 -2.17292 -4.37037 39.0811 -6.73843e-06 -1.23785e-05 0.164374 -0.328724 25.3547 40.9854 -6.48686e-06 -1.26872e-05 -10.3122 9.48261 -23.9873 11.7543 -2.30144e-07 3.05095e-06 0.201593 -0.349817 -22.6466 -2.19251 6.46944 -1.45247e-06 178.293 4.89706 116.066 -39.0811 -0.00228153 -0.0401928 0.407987 -0.186636 66.5864 -40.9854 7.72618e-06 5.99936e-06 0.167439 0.761375 -53.6297 -11.7543 -5.6619e-06 -5.58687e-06 0.380738 -0.457256 -20.9498 
0 0 0 0 0 -0 -138.541 93.4002 -303.652 90.6631 10.2908 -22.5826 15.7357 5.1072e-06 -5.51765e-07 44.8636 84.5458 -42.6962 8.98455 -0.406207 -4.3199e-07 0.0883994 -7.87494 4.34341 16.3773 -1.3905e-06 -6.99897e-07 -9.45245 -5.13905 2.88886 6.45672 -1.25837e-06 -1.02172e-07 -21.7487 -0.887189 6.07309 12.9942 -0.242716 4.98039 -90.4949 2.45249 -93.5852 5.34809 -7.22636e-06 -6.2814e-07 -64.8169 8.96118 -36.4192 24.3286 1.87007e-05 4.90208e-06 -5.17869 -5.01249 -45.6286 22.2916 -9.88446e-07 4.63217e-06 24.9218 5.59383 -10.962 12.9945 -0.242716 -4.98039 88.3713 7.72679 -93.0603 -5.34813 -1.25947e-06 -3.79883e-06 -45.2316 -25.7647 17.6696 -24.3289 0.000322201 -8.65921e-06 1.12574 3.59459 -17.4577 -22.2915 -0.000108084 -4.47941e-06 5.51148 5.08898 5.36477 -2.19248 -6.46944 -1.22534e-07 -171.12 1.26344 -5.84179 39.0811 -6.73843e-06 -1.23785e-05 0.300244 -0.291964 44.2922 40.9854 -6.48686e-06 -1.26872e-05 -8.76292 8.3914 -25.6425 11.7543 -2.30145e-07 3.05095e-06 0.179183 -0.306371 -21.912 -2.19251 6.46944 -1.45247e-06 179.915 8.61052 125.574 -39.0811 -0.00228153 -0.0401928 0.109371 -0.109341 47.5263 -40.9854 7.72618e-06 5.99936e-06 -5.47035 6.2816 -54.1909 -11.7543 -5.6619e-06 -5.58687e-06 0.392163 -0.472125 -21.0876 
0 0 0 0 0 -0 -138.221 91.3447 -294.439 90.324 6.83533 -19.773 15.7357 5.1072e-06 -5.51765e-07 55.8825 84.0889 -53.9788 8.98455 -0.406207 -4.3199e-07 2.15031 -6.71973 3.93349 16.3773 -1.3905e-06 -6.99897e-07 -8.24197 -4.79701 3.84527 6.45672 -1.25837e-06 -1.02172e-07 -21.8212 -0.261761 6.12664 12.9942 -0.242716 4.98039 -90.9893 4.94806 -93.6806 5.34809 -7.22636e-06 -6.2814e-07 -66.1613 10.4627 -24.5902 24.3286 1.87007e-05 4.90208e-06 -2.98716 -4.25143 -35.0976 22.2916 -9.88446e-07 4.63217e-06 19.8734 5.55342 -8.76316 12.9945 -0.242716 -4.98039 87.9887 9.54708 -93.0441 -5.34813 -1.25947e-06 -3.79883e-06 -44.1368 -24.4583 5.19675 -24.3289 0.000322201 -8.65921e-06 -0.0608561 -0.141095 -22.4537 -22.2915 -0.000108084 -4.47941e-06 4.99786 5.14628 4.03127 -2.19248 -6.46944 -1.22534e-07 -171.573 1.32879 -9.69605 39.0811 -6.73843e-06 -1.23785e-05 0.531522 -0.219082 66.8438 40.9854 -6.48686e-06 -1.26872e-05 -9.91518 6.45359 -24.0767 11.7543 -2.30145e-07 3.05095e-06 0.160035 -0.270325 -21.2989 -2.19251 6.46944 -1.45247e-06 -175.304 12.6761 132.587 -39.0811 -0.00228153 -0.0401928 0.0506559 -0.057832 38.9391 -40.9854 7.72618e-06 5.99936e-06 -2.35992 6.10984 -47.0625 -11.7543 -5.6619e-06 -5.58687e-06 1.39548 -0.118484 -25.6926 
